<svg width="80" height="80" fill="none" xmlns="http://www.w3.org/2000/svg"><rect x="45.25" y="12.18" width="46.41" height="46.41" rx="6.49" transform="rotate(74.62 45.25 12.18)" fill="#FAFAFA"/><rect x="79.33" y="31.69" width="45.39" height="45.39" rx="6.49" transform="rotate(120 79.33 31.69)" fill="#F4F4F4"/><path d="M42.74 32.64a4.2 4.2 0 1 1-8.37-.8 4.2 4.2 0 0 1 8.37.8ZM32.04 41.48a4.2 4.2 0 0 1 4.59-3.8l2.79.27a4.2 4.2 0 0 1 3.79 4.59l-.53 5.58a4.2 4.2 0 0 1-4.59 3.8l-2.79-.27a4.2 4.2 0 0 1-3.79-4.59l.53-5.58ZM64.5 35.63a3.64 3.64 0 1 1-7.2-1.2 3.64 3.64 0 0 1 7.2 1.2ZM54.72 42.63a3.64 3.64 0 0 1 4.2-3l2.39.4a3.64 3.64 0 0 1 3 4.18l-.8 4.8a3.64 3.64 0 0 1-4.18 3l-2.4-.4a3.64 3.64 0 0 1-3-4.19l.8-4.8Z" fill="#B3CCFF"/><path d="M23.5 34.4a3.79 3.79 0 1 1-7.38 1.72 3.79 3.79 0 0 1 7.38-1.71ZM16.89 45.02a3.79 3.79 0 0 1 2.83-4.55l2.46-.57c2.04-.47 4.07.8 4.55 2.84l1.14 4.92a3.79 3.79 0 0 1-2.83 4.54l-2.47.57a3.79 3.79 0 0 1-4.54-2.83l-1.14-4.92ZM50 34.1a4.2 4.2 0 1 1-8.35.97 4.2 4.2 0 0 1 8.35-.96ZM41.37 44.98a4.2 4.2 0 0 1 3.7-4.66l2.79-.32a4.2 4.2 0 0 1 4.66 3.7l.64 5.57a4.2 4.2 0 0 1-3.7 4.66l-2.78.32a4.2 4.2 0 0 1-4.66-3.7l-.65-5.57Z" fill="#CDF"/><path d="M33.62 30.33a4.2 4.2 0 1 1-8.41 0 4.2 4.2 0 0 1 8.4 0ZM23.8 40.15a4.2 4.2 0 0 1 4.21-4.2h2.8a4.2 4.2 0 0 1 4.21 4.2v5.6a4.2 4.2 0 0 1-4.2 4.21H28a4.2 4.2 0 0 1-4.2-4.2v-5.61ZM57.92 30.33a4.2 4.2 0 1 1-8.41 0 4.2 4.2 0 0 1 8.41 0ZM48.1 40.15a4.2 4.2 0 0 1 4.21-4.2h2.8a4.2 4.2 0 0 1 4.21 4.2v5.6a4.2 4.2 0 0 1-4.2 4.21h-2.8a4.2 4.2 0 0 1-4.21-4.2v-5.61Z" fill="#E5EEFF"/><rect x="14.72" y="47.71" width="51.04" height="12.67" rx="1.03" fill="#FF5975" stroke="#fff" stroke-width=".69"/><path d="M20.26 56.44V54.6h-1.78v-1.05h1.78v-1.86h1.09v1.86h1.78v1.05h-1.78v1.85h-1.1ZM26.2 57.4v-1.2h1.4v-3.71h-1.2v-.92a5.18 5.18 0 0 0 1.59-.59h1.09v5.21h1.2v1.2H26.2ZM33.63 57.4V50.8h2.25c.34 0 .66.03.95.08.3.05.55.14.76.26a1.37 1.37 0 0 1 .7 1.3 1.68 1.68 0 0 1-.5 1.2c-.1.1-.21.17-.35.22v.04a1.57 1.57 0 0 1 .84.5c.1.13.19.28.25.46.06.17.1.36.1.59 0 .33-.08.62-.21.86-.13.25-.31.45-.55.6-.22.16-.5.28-.8.36a4.3 4.3 0 0 1-1 .11h-2.45Zm1.48-3.95h.7c.36 0 .62-.07.78-.22a.7.7 0 0 0 .26-.56c0-.26-.09-.44-.26-.55-.17-.1-.42-.16-.77-.16h-.71v1.49Zm0 2.8h.84c.81 0 1.22-.3 1.22-.9 0-.29-.1-.5-.3-.61-.2-.13-.51-.2-.92-.2h-.84v1.7ZM39.62 57.4v-5.01h1.48v5h-1.48Zm.73-5.75a.9.9 0 0 1-.61-.21.73.73 0 0 1-.25-.57.7.7 0 0 1 .25-.55.9.9 0 0 1 .61-.22c.26 0 .46.08.62.22a.7.7 0 0 1 .24.55c0 .23-.08.42-.24.57a.88.88 0 0 1-.62.2ZM43.77 57.51c-.26 0-.47-.04-.65-.12a1.1 1.1 0 0 1-.42-.33c-.1-.15-.18-.32-.22-.52-.05-.21-.07-.45-.07-.7v-5.52h1.48v5.58c0 .15.03.26.08.32.06.06.12.1.18.1h.08l.1-.03.19 1.1a2.03 2.03 0 0 1-.75.12ZM46.66 57.51c-.26 0-.47-.04-.65-.12a1.1 1.1 0 0 1-.42-.33c-.1-.15-.18-.32-.23-.52-.04-.21-.07-.45-.07-.7v-5.52h1.49v5.58c0 .15.02.26.08.32s.12.1.18.1h.08l.1-.03.18 1.1a2.03 2.03 0 0 1-.75.12ZM48.18 57.4v-5.01h1.49v5h-1.49Zm.74-5.75a.9.9 0 0 1-.62-.21.73.73 0 0 1-.24-.57.7.7 0 0 1 .24-.55.9.9 0 0 1 .62-.22c.25 0 .46.08.61.22a.7.7 0 0 1 .25.55c0 .23-.08.42-.25.57a.88.88 0 0 1-.61.2ZM53.12 57.51a2.45 2.45 0 0 1-1.7-.69 2.5 2.5 0 0 1-.54-.81c-.13-.33-.2-.7-.2-1.12 0-.42.07-.79.2-1.11a2.32 2.32 0 0 1 1.32-1.33 2.4 2.4 0 0 1 3.15 1.33c.14.32.2.7.2 1.11 0 .42-.06.79-.2 1.12a2.42 2.42 0 0 1-2.23 1.5Zm0-1.2c.3 0 .53-.12.69-.38a2 2 0 0 0 .23-1.04 2 2 0 0 0-.23-1.04.75.75 0 0 0-.69-.38.76.76 0 0 0-.7.38c-.14.26-.22.6-.22 1.04 0 .44.08.78.23 1.04.15.26.38.38.7.38ZM56.57 57.4v-5.01h1.21l.1.63h.04c.22-.2.45-.37.71-.52.26-.16.56-.23.9-.23.54 0 .94.17 1.18.53.25.36.37.85.37 1.48v3.11H59.6v-2.91c0-.37-.05-.62-.15-.75-.1-.14-.25-.2-.47-.2a.87.87 0 0 0-.48.13c-.14.08-.28.2-.44.35v3.38h-1.49Z" fill="#fff"/></svg>