<svg width="80" height="81" fill="none" xmlns="http://www.w3.org/2000/svg"><rect x="81.95" y="26.7" width="61.04" height="61.04" rx="8.72" transform="rotate(112.85 81.95 26.7)" fill="#E5EEFF"/><rect x="3" y="24" width="34" height="15.87" rx="1.13" fill="#FF5975"/><path fill-rule="evenodd" clip-rule="evenodd" d="M6.4 39.87h6.8l-6.8 3.4v-3.4Z" fill="#FF5975"/><path fill-rule="evenodd" clip-rule="evenodd" d="M7.6 32.08c0 2.61 1.65 3.99 3.62 3.99a3.2 3.2 0 0 0 2.51-1.15l-.93-1.1c-.38.4-.88.73-1.51.73-1.15 0-1.89-.93-1.89-2.53 0-1.56.85-2.5 1.91-2.5.56 0 .98.26 1.37.62l.93-1.13A3.29 3.29 0 0 0 11.28 28C9.3 28 7.6 29.5 7.6 32.08Zm7.31-3.94v7.78h1.76v-7.78H14.9ZM20.33 32l-.19.71h1.66l-.18-.71c-.15-.55-.3-1.18-.45-1.78l-.18-.73h-.05l-.09.37c-.16.72-.34 1.47-.52 2.14Zm-.38-3.85-2.43 7.78h1.79l.47-1.85h2.38l.47 1.85h1.87l-2.44-7.78h-2.11Zm8.56 7.93c-2.1 0-3.54-1.53-3.54-4.07s1.44-4 3.54-4 3.53 1.47 3.53 4c0 2.54-1.43 4.07-3.53 4.07ZM30.24 32c0 1.56-.67 2.55-1.73 2.55-1.07 0-1.73-.99-1.73-2.55 0-1.55.66-2.48 1.73-2.48 1.06 0 1.73.93 1.73 2.48Z" fill="#fff"/><rect x="35" y="6" width="40.8" height="14.73" rx="1.13" fill="#FFB700"/><path fill-rule="evenodd" clip-rule="evenodd" d="M68.66 17.08c-1.99 0-3.34-1.44-3.34-3.84s1.35-3.78 3.34-3.78c1.99 0 3.34 1.38 3.34 3.78s-1.35 3.84-3.34 3.84Zm-28.75-.13V9.59h1.66v2.83h2.54V9.6h1.67v7.36H44.1v-3.07h-2.54v3.07H39.9Zm9.33-3.73-.18.68h1.57l-.17-.68c-.15-.52-.29-1.1-.43-1.68l-.17-.69h-.04l-.09.35c-.15.68-.32 1.4-.49 2.02Zm-.36-3.63-2.3 7.36h1.69l.45-1.75h2.25l.45 1.75h1.76l-2.3-7.36h-2Zm5.1 7.36V9.59h1.66v5.96h2.9v1.4h-4.56Zm5.84-7.36v7.36h4.57v-1.4h-2.9V9.59h-1.67Zm10.48 3.65c0 1.47-.64 2.41-1.64 2.41-1 0-1.64-.94-1.64-2.41 0-1.47.64-2.35 1.64-2.35 1 0 1.64.88 1.64 2.35Z" fill="#fff"/><path fill-rule="evenodd" clip-rule="evenodd" d="M72.4 20.73h-6.8l6.8 3.4v-3.4Z" fill="#FFB700"/><rect x="11" y="55" width="47.6" height="15.87" rx="1.13" fill="#05F"/><path fill-rule="evenodd" clip-rule="evenodd" d="M22.37 60.15v8.48h1.83v-1.81l-.06-.99c.43.42.93.65 1.47.65 1.33 0 2.6-1.22 2.6-3.34 0-1.9-.92-3.14-2.42-3.14-.64 0-1.27.32-1.75.76h-.05l-.13-.61h-1.5Zm-7.16 0v6.18h1.83v-4.75h1.87v4.75h1.84v-6.18H15.2Zm9.97 4.84c.64 0 1.15-.55 1.15-1.82 0-1.11-.34-1.67-1.07-1.67-.38 0-.7.17-1.06.56v2.53c.32.3.67.4.98.4Zm4.33-4.84v6.18h1.67l1.6-2.61.72-1.3h.05l-.02.22c-.07.7-.14 1.41-.14 1.97v1.72h1.77v-6.18h-1.67l-1.61 2.62-.4.72-.31.57h-.04l.04-.5c.06-.6.11-1.21.11-1.69v-1.72h-1.77Zm7.27 6.18v-6.18h2.63c1.38 0 2.48.4 2.48 1.63 0 .53-.3 1.08-1.04 1.27v.05c.78.2 1.28.62 1.28 1.45 0 1.27-1.16 1.78-2.57 1.78h-2.78Zm2.5-3.76h-.72v-1.21h.74c.6 0 .84.24.84.61s-.25.6-.86.6Zm-.72 2.55h.89c.66 0 .9-.28.9-.7 0-.36-.27-.64-.92-.64h-.87v1.34ZM43 63.24c0 2.05 1.36 3.24 3.13 3.24.73 0 1.56-.26 2.2-.7l-.62-1.1c-.45.27-.87.4-1.33.4-.83 0-1.45-.4-1.61-1.3h3.7c.04-.15.08-.49.08-.81 0-1.69-.88-2.97-2.63-2.97-1.49 0-2.92 1.23-2.92 3.24Zm1.76-.67h2.23c0-.69-.3-1.17-1.04-1.17-.57 0-1.07.38-1.2 1.17Zm6.4-.99v4.75h1.82v-4.75h1.84v-1.43h-5.49v1.43h1.82Z" fill="#fff"/><path fill-rule="evenodd" clip-rule="evenodd" d="M14.4 70.87h6.8l-6.8 3.4v-3.4Z" fill="#05F"/><rect x="41" y="32" width="36.27" height="15.87" rx="1.13" fill="#0FC0C5"/><path fill-rule="evenodd" clip-rule="evenodd" d="M64.8 47.87v3.4l-6.8-3.4h6.8Z" fill="#0FC0C5"/><path fill-rule="evenodd" clip-rule="evenodd" d="M44.57 42.77H60.65v-1.82a4.2 4.2 0 0 1-1.39-.64c-.36-.27-.74-.59-1.12-.94-.98-.9-1.88-1.35-2.69-1.35-.77 0-1.32.2-1.65.58-.13.12-.35.45-.65.99.74-.27 1.29-.4 1.65-.4.46 0 .89.13 1.29.41a8.54 8.54 0 0 1 1.55 1.4l-6.06-.02h-.44c0-.33-.1-.86-.3-1.57a4.18 4.18 0 0 0-.83-1.65l-1 1.45c.17.14.37.41.58.81.21.4.32.65.32.75 0 .14-.04.21-.12.21h-4.73c-.26 0-.39-.14-.39-.41v-6.14l-1.18 1.06v6.3c0 .32.08.57.23.73.16.17.44.25.85.25Zm6.67-1.79h.34v1.79h-.34v-1.79Zm-4.81 0v1.79h-.34v-1.79h.34Zm26.01.28c0 1.02-.6 1.53-1.78 1.53a4.15 4.15 0 0 1-2.52-.84c-.18.55-.6.82-1.25.82h-.52v-1.79h-.33c1.5 0 2.28-.06 2.33-.2l.5-.9c.3-.64.62-1.13.97-1.47.34-.35.7-.52 1.1-.52.25 0 .46.11.64.34.17.23.36.71.56 1.44.21.73.31 1.26.3 1.6Zm-6.4-.28h-.16a2.57 2.57 0 0 0-.65-1.14l-.62-.62-.76 1.63c.9.8 1.36 1.42 1.37 1.87 0 .21-.27.56-.82 1.05-.54.5-1.19.76-1.94.8-.4 0-.78-.07-1.15-.22a8.2 8.2 0 0 1-.88-.4l-.3-.18c.2.57.56 1.14 1.11 1.7.55.55 1.1.82 1.67.82.74 0 1.5-.52 2.26-1.55.47-.72.74-1.37.81-1.97h.4-.34v-1.79Zm5.2 0c0-.24-.08-.54-.27-.9-.19-.37-.45-.56-.8-.56a.97.97 0 0 0-.37.13c-.17.08-.34.21-.51.4-.18.18-.26.32-.26.43 0 .04.03.1.1.17a3.64 3.64 0 0 0 1.39.45l.55.04c.12 0 .18-.05.18-.15ZM48.3 43.9l1.64.66-.6 1.33-1.61-.67.57-1.32Z" fill="#fff"/></svg>