<svg width="80" height="81" fill="none" xmlns="http://www.w3.org/2000/svg"><rect x="81.95" y="26.7" width="61.04" height="61.04" rx="8.72" transform="rotate(112.85 81.95 26.7)" fill="#FFF1CC"/><path d="M48 16.25c0-.58-.47-1.05-1.05-1.05h-4.21a1.46 1.46 0 0 1-1.39-1.06A5.3 5.3 0 0 0 35.91 10a5.39 5.39 0 0 0-5.45 4.23c-.17.59-.74.99-1.38.97h-4.03c-.58 0-1.05.47-1.05 1.05v6.7c0 .58.47 1.05 1.05 1.05h21.9c.58 0 1.05-.47 1.05-1.05v-6.7Z" fill="#DDD"/><path d="M59.15 69.97V70a3.18 3.18 0 0 1-3.1 3.23H15.6a3.18 3.18 0 0 1-3.1-3.25V22.83l.01-.22a2.85 2.85 0 0 1 3.05-2.63h6.59v3.67c0 .4.1.88.3 1.27.21.4.6.82 1.2.82h24.27c.6 0 1-.41 1.24-.8.23-.38.36-.87.36-1.3V20H56.1l.21-.01a2.85 2.85 0 0 1 2.84 2.86v47.13Zm.53 0V22.84c0-1.87-1.5-3.38-3.37-3.39l3.37 50.52Z" fill="#fff" stroke="#F4F4F4" stroke-width="1.05"/><path d="m23.68 39.04 6.42-6a1.23 1.23 0 0 0-1.65-1.81l-5.59 5.26-2.47-2.63a1.23 1.23 0 0 0-1.72 0c-.5.46-.54 1.23-.09 1.73l3.38 3.45c.23.25.56.4.9.42.32-.02.62-.17.82-.42ZM23.68 51.7l6.42-6.01a1.23 1.23 0 0 0-1.65-1.81l-5.59 5.26-2.47-2.63a1.23 1.23 0 0 0-1.72 0c-.5.46-.54 1.22-.09 1.73l3.38 3.45c.23.25.56.4.9.41.32-.01.62-.16.82-.4ZM23.68 64.34l6.42-6a1.23 1.23 0 0 0-1.65-1.82l-5.59 5.27-2.47-2.63a1.23 1.23 0 0 0-1.72 0c-.5.45-.54 1.22-.09 1.72l3.38 3.46c.23.25.56.4.9.41.32-.02.62-.17.82-.41Z" fill="#0C4"/><rect x="31.93" y="34.16" width="23.11" height="2.1" rx="1.05" fill="#B3CCFF"/><rect x="31.93" y="46.77" width="23.11" height="2.1" rx="1.05" fill="#E8E8E8"/><rect x="31.93" y="59.38" width="23.11" height="2.1" rx="1.05" fill="#E8E8E8"/><g clip-path="url(#a)"><path d="m55.14 21.38 1.65-.21c.13-.42.3-.82.5-1.2l-1.02-1.32a1.3 1.3 0 0 1 .1-1.73l1.38-1.38a1.3 1.3 0 0 1 1.74-.1l1.31 1c.38-.19.79-.35 1.2-.49l.21-1.64c.08-.66.64-1.16 1.3-1.16h1.96c.67 0 1.23.5 1.3 1.15l.22 1.65c.41.14.82.3 1.2.5l1.3-1.02a1.3 1.3 0 0 1 1.74.1l1.38 1.39c.47.46.52 1.2.1 1.74l-1 1.3c.19.39.36.79.5 1.2l1.63.22c.66.07 1.16.63 1.16 1.3v1.96c0 .66-.5 1.22-1.15 1.3l-1.65.2c-.13.43-.3.83-.5 1.21l1.02 1.31a1.3 1.3 0 0 1-.1 1.73l-1.39 1.38a1.3 1.3 0 0 1-1.73.11l-1.31-1.02c-.38.2-.79.37-1.2.5l-.21 1.65a1.31 1.31 0 0 1-1.3 1.15H63.5c-.66 0-1.22-.5-1.3-1.15l-.2-1.65c-.42-.13-.83-.3-1.2-.5l-1.32 1.02a1.3 1.3 0 0 1-1.73-.1l-1.38-1.38a1.3 1.3 0 0 1-.11-1.74l1.02-1.3c-.2-.4-.37-.8-.5-1.21l-1.64-.21a1.31 1.31 0 0 1-1.16-1.3v-1.96c0-.67.5-1.23 1.15-1.3Zm9.35 6.65a4.38 4.38 0 1 0 0-8.76 4.38 4.38 0 0 0 0 8.76Z" fill="#FFB700"/></g><g clip-path="url(#b)"><path d="m52.81 41.8 1.32-.17c.1-.34.24-.66.4-.97l-.82-1.04c-.33-.43-.29-1.03.09-1.39l1.1-1.1c.37-.38.97-.42 1.4-.1l1.04.82c.3-.16.62-.29.96-.4l.17-1.31c.06-.53.5-.93 1.04-.93h1.57c.53 0 .97.4 1.04.93l.16 1.31c.34.11.66.24.97.4l1.04-.81c.43-.33 1.02-.3 1.39.08l1.1 1.1c.38.37.42.97.1 1.4l-.82 1.04c.16.3.29.63.4.97l1.31.16c.53.07.93.51.93 1.04v1.57c0 .53-.4.98-.93 1.04l-1.31.17c-.11.33-.25.66-.4.96l.81 1.05c.33.42.3 1.02-.08 1.39l-1.1 1.1c-.38.38-.97.42-1.4.09l-1.04-.82c-.3.16-.63.3-.97.4l-.16 1.32c-.07.53-.51.92-1.04.92H59.5c-.53 0-.98-.4-1.04-.92l-.17-1.32c-.33-.1-.66-.24-.96-.4l-1.05.82c-.42.33-1.02.29-1.39-.09l-1.1-1.1a1.04 1.04 0 0 1-.09-1.4l.81-1.04c-.15-.3-.29-.63-.4-.96l-1.3-.17a1.05 1.05 0 0 1-.93-1.04v-1.57c0-.53.4-.97.92-1.04Zm7.48 5.32a3.5 3.5 0 1 0 0-7.01 3.5 3.5 0 0 0 0 7.01Z" fill="#05F"/></g><defs><clipPath id="a"><path fill="#fff" transform="matrix(-1 0 0 1 75 13.15)" d="M0 0h21.01v21.01H0z"/></clipPath><clipPath id="b"><path fill="#fff" transform="matrix(-1 0 0 1 68.7 35.21)" d="M0 0h16.81v16.81H0z"/></clipPath></defs></svg>